<svg xmlns="http://www.w3.org/2000/svg" width="141.98" height="57.537" viewBox="0 0 141.98 57.537">
  <g id="DAO" transform="translate(-0.6 -2.9)">
    <path id="Контур_1" data-name="Контур 1" d="M49.412,21.023l8.617,14.843H68.48L49.412,2.9,30.4,35.866H40.851Z" transform="translate(-13.234)"/>
    <g id="Сгруппировать_1" data-name="Сгруппировать 1" transform="translate(0.6 50.43)">
      <path id="Контур_2" data-name="Контур 2" d="M9.217,93.536a5.286,5.286,0,0,1-.334,1.946,4.169,4.169,0,0,1-1,1.557,4.169,4.169,0,0,1-1.557,1,5.815,5.815,0,0,1-2,.334H.6V88.7H4.325a5.815,5.815,0,0,1,2,.334,4.169,4.169,0,0,1,1.557,1,4.169,4.169,0,0,1,1,1.557A5.5,5.5,0,0,1,9.217,93.536Zm-1.835,0a3.949,3.949,0,0,0-.222-1.445,2.787,2.787,0,0,0-.612-1.056,3.652,3.652,0,0,0-.945-.667,3.09,3.09,0,0,0-1.279-.222H2.435v6.838h1.89A3.09,3.09,0,0,0,5.6,96.761a2.415,2.415,0,0,0,.945-.667,3.3,3.3,0,0,0,.612-1.056A4.464,4.464,0,0,0,7.382,93.536Z" transform="translate(-0.6 -88.533)"/>
      <path id="Контур_3" data-name="Контур 3" d="M59.65,98.428h-1.39a.8.8,0,0,1-.389-.111.555.555,0,0,1-.222-.278l-.723-2h-4l-.723,2a.555.555,0,0,1-.222.278.469.469,0,0,1-.389.111H50.2L53.98,88.7h1.835Zm-6.282-3.669h3.113l-1.167-3.224-.167-.5c-.056-.222-.111-.389-.167-.612-.056.222-.111.445-.167.612a2.585,2.585,0,0,1-.167.5Z" transform="translate(-22.627 -88.533)"/>
      <path id="Контур_4" data-name="Контур 4" d="M111.184,93.4a5.815,5.815,0,0,1-.334,2,4.169,4.169,0,0,1-1,1.557,5.134,5.134,0,0,1-1.557,1.056,5.827,5.827,0,0,1-2,.389,4.765,4.765,0,0,1-2-.389,4.3,4.3,0,0,1-1.557-1.056,4.169,4.169,0,0,1-1-1.557,6.171,6.171,0,0,1,0-4,4.169,4.169,0,0,1,1-1.557,5.134,5.134,0,0,1,1.557-1.056,5.827,5.827,0,0,1,2-.389,4.765,4.765,0,0,1,2,.389,5.134,5.134,0,0,1,1.557,1.056,4.169,4.169,0,0,1,1,1.557A5.815,5.815,0,0,1,111.184,93.4Zm-1.835,0a3.949,3.949,0,0,0-.222-1.445,2.788,2.788,0,0,0-.612-1.056,3.652,3.652,0,0,0-.945-.667,3.787,3.787,0,0,0-2.557,0,2.415,2.415,0,0,0-.945.667,3.3,3.3,0,0,0-.612,1.056,4.809,4.809,0,0,0,0,2.891,2.788,2.788,0,0,0,.612,1.056,3.652,3.652,0,0,0,.945.667,3.261,3.261,0,0,0,1.279.222,3.09,3.09,0,0,0,1.279-.222,2.415,2.415,0,0,0,.945-.667,3.3,3.3,0,0,0,.612-1.056A5.633,5.633,0,0,0,109.35,93.4Z" transform="translate(-45.364 -88.4)"/>
      <path id="Контур_5" data-name="Контур 5" d="M153.9,103.7a.946.946,0,0,1,.056-.389,1.022,1.022,0,0,1,.556-.556,1.39,1.39,0,0,1,.778,0,1.022,1.022,0,0,1,.556.556.946.946,0,0,1,.056.389.824.824,0,0,1-.056.389,1.022,1.022,0,0,1-.556.556.946.946,0,0,1-.389.056.824.824,0,0,1-.389-.056,1.022,1.022,0,0,1-.556-.556A.824.824,0,0,1,153.9,103.7Z" transform="translate(-68.679 -94.75)"/>
      <path id="Контур_6" data-name="Контур 6" d="M190.1,88.656h1.445a.8.8,0,0,1,.389.111.555.555,0,0,1,.222.278l2.279,5.948c.056.167.167.389.222.611a3.6,3.6,0,0,0,.222.723,10.139,10.139,0,0,1,.389-1.39l2.279-5.948a.555.555,0,0,1,.222-.278.469.469,0,0,1,.389-.111h1.445l-3.947,9.728h-1.612Z" transform="translate(-84.755 -88.489)"/>
      <path id="Контур_7" data-name="Контур 7" d="M248.427,96c.111,0,.167.056.278.111l.723.778a3.5,3.5,0,0,1-1.445,1.112,4.688,4.688,0,0,1-2.057.389,4.349,4.349,0,0,1-1.946-.389,5.449,5.449,0,0,1-1.5-1,4.865,4.865,0,0,1-.945-1.557,5.815,5.815,0,0,1-.334-2,4.765,4.765,0,0,1,.389-2,4.355,4.355,0,0,1,2.557-2.557,5.827,5.827,0,0,1,2-.389,4.552,4.552,0,0,1,3.28,1.223l-.612.834c-.056.056-.056.111-.111.167s-.111.056-.222.056a.79.79,0,0,1-.334-.111c-.111-.056-.222-.167-.389-.278a6.522,6.522,0,0,0-.611-.278A4.409,4.409,0,0,0,246.2,90a3.262,3.262,0,0,0-1.279.222,3.155,3.155,0,0,0-1,.667,3.419,3.419,0,0,0-.667,1.056,3.949,3.949,0,0,0-.222,1.445,3.626,3.626,0,0,0,.834,2.5,2.907,2.907,0,0,0,.945.667,2.578,2.578,0,0,0,1.167.222,2.706,2.706,0,0,0,.667-.056,1.644,1.644,0,0,0,.556-.111,1.974,1.974,0,0,0,.5-.222c.167-.111.278-.222.445-.334.056-.056.111-.056.167-.111C248.316,96.06,248.371,96,248.427,96Z" transform="translate(-107.448 -88.444)"/>
    </g>
    <path id="Контур_8" data-name="Контур 8" d="M.6,3.1h0V36.066h0A16.453,16.453,0,0,0,17.055,19.611,16.5,16.5,0,0,0,.6,3.1Z" transform="translate(0 -0.089)"/>
    <path id="Контур_9" data-name="Контур 9" d="M176.712,17.943,168.151,3.1H157.7l19.012,32.966L195.78,3.1H185.329Z" transform="translate(-69.766 -0.089)"/>
    <path id="Контур_10" data-name="Контур 10" d="M242.855,35.866h0V2.9h0a16.483,16.483,0,0,0,0,32.966Z" transform="translate(-100.275 0)"/>
    <path id="Контур_11" data-name="Контур 11" d="M115.355,36.066h0V3.1h0a16.483,16.483,0,0,0,0,32.966Z" transform="translate(-43.654 -0.089)"/>
    <path id="Контур_12" data-name="Контур 12" d="M128.1,3.1h0V36.066h0a16.483,16.483,0,0,0,0-32.966Z" transform="translate(-56.621 -0.089)"/>
    <circle id="Эллипс_1" data-name="Эллипс 1" cx="4.281" cy="4.281" r="4.281" transform="translate(87.823 27.36)"/>
    <circle id="Эллипс_2" data-name="Эллипс 2" cx="4.281" cy="4.281" r="4.281" transform="translate(46.685 2.956)"/>
  </g>
</svg>
